# xmcd CD database file
# Copyright (C) 1993-1998 Ti Kan
#
# Track frame offsets:
#	150
#	15205
#	31635
#	41082
#	64785
#	77830
#	89757
#	102075
#	114285
#	130257
#	133332
#	155887
#	168827
#	179747
#	197385
#
# Disc length: 3087 seconds
#
# Revision: 1
# Processed by: cddbd v1.4b41PL1 Copyright (c) Steve Scherf et al.
# Submitted via: CDValet v3.31 - Copyright (c) 1997 Greg Leichner
#
DISCID=c20c0d0f
DTITLE=Backsliders - Hellhound
DYEAR=1900
DGENRE=
TTITLE0=Travelling Riverside Blues
TTITLE1=Taking a Stroll Downtown
TTITLE2=Texas Tony
TTITLE3=Kokomo
TTITLE4=I Wish You Would
TTITLE5=Mr Johnsons Blues Today
TTITLE6=Jean Harlow
TTITLE7=Casey Jones
TTITLE8=Hellhound on My Trail
TTITLE9=Guitar Intro
TTITLE10=Smokestack Lightning
TTITLE11=99 Years
TTITLE12=King Edwards Blues
TTITLE13=Stop Breaking Down
TTITLE14=Preaching Blues
EXTD=
EXTT0=
EXTT1=
EXTT2=
EXTT3=
EXTT4=
EXTT5=
EXTT6=
EXTT7=
EXTT8=
EXTT9=
EXTT10=
EXTT11=
EXTT12=
EXTT13=
EXTT14=
PLAYORDER=
